<?xml version="1.0" standalone="no"?>
<!DOCTYPE svg PUBLIC "-//W3C//DTD SVG 20010904//EN"
 "http://www.w3.org/TR/2001/REC-SVG-20010904/DTD/svg10.dtd">
<svg version="1.0" xmlns="http://www.w3.org/2000/svg"
 width="16.000000pt" height="16.000000pt" viewBox="0 0 16.000000 16.000000"
 preserveAspectRatio="xMidYMid meet">
<metadata>
Created by potrace 1.11, written by Peter Selinger 2001-2013
</metadata>
<g transform="translate(0.000000,16.000000) scale(0.006154,-0.006154)"
fill="#000000" stroke="none">
<path d="M0 1300 l0 -1300 1300 0 1300 0 0 1300 0 1300 -1300 0 -1300 0 0
-1300z m1860 130 l0 -460 -94 0 c-93 0 -94 0 -100 26 -6 24 -8 25 -24 11 -59
-53 -212 -69 -288 -29 -101 52 -148 152 -148 312 1 165 44 259 145 315 49 27
63 30 144 30 50 0 105 -4 123 -8 l32 -9 0 136 0 136 105 0 105 0 0 -460z
m-1251 200 c19 -5 46 -21 61 -35 l26 -25 62 31 c122 63 268 48 317 -33 18 -30
20 -55 23 -315 l3 -283 -110 0 -111 0 0 228 c0 261 -3 272 -69 272 -21 0 -52
-5 -70 -11 l-31 -11 0 -239 0 -239 -104 0 -105 0 -3 236 c-3 220 -4 237 -22
250 -24 17 -71 18 -115 3 l-31 -11 0 -239 0 -239 -110 0 -110 0 0 330 0 330
105 0 105 0 0 -31 0 -31 36 23 c77 47 174 62 253 39z m1864 -10 c26 -13 27
-16 27 -93 0 -71 -2 -78 -17 -72 -40 15 -128 24 -165 16 -86 -20 -118 -67
-118 -173 1 -87 27 -144 77 -165 38 -15 135 -14 206 3 l27 6 0 -71 c0 -68 -1
-71 -29 -85 -42 -22 -158 -38 -221 -31 -95 11 -150 34 -200 85 -66 65 -85 125
-85 260 1 91 4 112 26 160 41 88 111 146 206 170 51 13 231 6 266 -10z"/>
<path d="M1489 1475 c-36 -20 -51 -59 -57 -150 -8 -145 28 -210 117 -210 28 0
58 7 74 18 l27 17 0 155 c0 148 -1 154 -22 169 -28 20 -104 20 -139 1z"/>
</g>
</svg>
